<svg width="96" height="96" viewBox="0 0 96 96" fill="none" xmlns="http://www.w3.org/2000/svg">
  <rect x="8" y="8" width="80" height="80" rx="22" fill="#111827"/>
  <path d="M29 60.5V48.2C29 46.5 30.4 45.1 32.1 45.1H37.9C39.6 45.1 41 46.5 41 48.2V60.5" stroke="#F8FAFC" stroke-width="5" stroke-linecap="round"/>
  <path d="M46 60.5V35.5C46 33.8 47.4 32.4 49.1 32.4H54.9C56.6 32.4 58 33.8 58 35.5V60.5" stroke="#14B8A6" stroke-width="5" stroke-linecap="round"/>
  <path d="M63 60.5V42.5C63 40.8 64.4 39.4 66.1 39.4H71.9C73.6 39.4 75 40.8 75 42.5V60.5" stroke="#F97316" stroke-width="5" stroke-linecap="round"/>
  <path d="M26 66.5H78" stroke="#F8FAFC" stroke-width="5" stroke-linecap="round"/>
  <circle cx="67" cy="29" r="7" fill="#DBEAFE"/>
  <path d="M72 34L78 40" stroke="#DBEAFE" stroke-width="4" stroke-linecap="round"/>
</svg>
